<svg width="24" height="25" viewBox="0 0 24 25" fill="none" xmlns="http://www.w3.org/2000/svg">
<g clip-path="url(#clip0_1_2452)">
<path d="M8.36061 1.28937C5.96264 2.12125 3.89463 3.70018 2.46035 5.79425C1.02606 7.88832 0.301099 10.3871 0.391944 12.9237C0.48279 15.4602 1.38466 17.9008 2.96507 19.8869C4.54549 21.873 6.72115 23.2999 9.17249 23.9581C11.1598 24.4709 13.242 24.4934 15.24 24.0237C17.05 23.6172 18.7233 22.7476 20.0962 21.5C21.5251 20.1619 22.5623 18.4596 23.0962 16.5762C23.6766 14.5281 23.7799 12.3742 23.3981 10.28H12.2381V14.9094H18.7012C18.5721 15.6477 18.2953 16.3524 17.8874 16.9813C17.4795 17.6102 16.949 18.1503 16.3275 18.5694C15.5383 19.0914 14.6486 19.4427 13.7156 19.6006C12.7799 19.7746 11.8201 19.7746 10.8844 19.6006C9.93597 19.4045 9.0388 19.0131 8.24999 18.4512C6.98277 17.5542 6.03126 16.2799 5.53124 14.81C5.02277 13.3126 5.02277 11.6893 5.53124 10.1919C5.88716 9.14228 6.47555 8.18663 7.25249 7.39625C8.1416 6.47515 9.26724 5.81674 10.5059 5.49326C11.7446 5.16979 13.0484 5.19374 14.2744 5.5625C15.2321 5.85648 16.1078 6.37013 16.8319 7.0625C17.5606 6.3375 18.2881 5.61062 19.0144 4.88187C19.3894 4.49 19.7981 4.11687 20.1675 3.71562C19.0623 2.68714 17.765 1.88685 16.35 1.36062C13.7732 0.424977 10.9537 0.399833 8.36061 1.28937Z" fill="white"/>
<path d="M8.36064 1.28937C10.9535 0.399232 13.773 0.423714 16.35 1.35875C17.7653 1.88856 19.062 2.6927 20.1656 3.725C19.7906 4.12625 19.395 4.50125 19.0125 4.89125C18.285 5.6175 17.5581 6.34125 16.8319 7.0625C16.1079 6.37013 15.2321 5.85648 14.2744 5.5625C13.0488 5.19245 11.7451 5.16711 10.5061 5.48927C9.26706 5.81142 8.14073 6.46862 7.25064 7.38875C6.4737 8.17913 5.88532 9.13478 5.52939 10.1844L1.64252 7.175C3.03378 4.41605 5.44267 2.30567 8.36064 1.28937Z" fill="#E33629"/>
<path d="M0.611279 10.1563C0.820194 9.12087 1.16704 8.11818 1.64253 7.175L5.5294 10.1919C5.02093 11.6893 5.02093 13.3126 5.5294 14.81C4.2344 15.81 2.93878 16.815 1.64253 17.825C0.452186 15.4556 0.0891526 12.7559 0.611279 10.1563Z" fill="#F8BD00"/>
<path d="M12.2381 10.2781H23.3981C23.7799 12.3724 23.6766 14.5263 23.0963 16.5744C22.5623 18.4578 21.5252 20.16 20.0963 21.4981C18.8419 20.5194 17.5819 19.5481 16.3275 18.5694C16.9494 18.1499 17.4802 17.6092 17.8881 16.9796C18.296 16.3501 18.5726 15.6446 18.7013 14.9056H12.2381C12.2363 13.3644 12.2381 11.8212 12.2381 10.2781Z" fill="#587DBD"/>
<path d="M1.64062 17.825C2.93687 16.825 4.2325 15.82 5.5275 14.81C6.02851 16.2804 6.98138 17.5548 8.25 18.4512C9.04127 19.0105 9.94037 19.3987 10.89 19.5912C11.8257 19.7652 12.7855 19.7652 13.7213 19.5912C14.6542 19.4333 15.5439 19.0821 16.3331 18.56C17.5875 19.5387 18.8475 20.51 20.1019 21.4887C18.7292 22.737 17.0558 23.6073 15.2456 24.0144C13.2476 24.4841 11.1655 24.4616 9.17813 23.9487C7.60632 23.5291 6.13814 22.7892 4.86563 21.7756C3.51874 20.7063 2.41867 19.3587 1.64062 17.825Z" fill="#319F43"/>
</g>
<defs>
<clipPath id="clip0_1_2452">
<rect width="24" height="24" fill="white" transform="translate(0 0.5)"/>
</clipPath>
</defs>
</svg>
