<svg width="26" height="26" viewBox="0 0 26 26" fill="none" xmlns="http://www.w3.org/2000/svg">
<path d="M25 25.0003L19.2094 19.2096M19.2094 19.2096C20.1999 18.2191 20.9856 17.0432 21.5217 15.749C22.0577 14.4548 22.3336 13.0677 22.3336 11.6669C22.3336 10.2661 22.0577 8.87905 21.5217 7.58488C20.9856 6.29071 20.1999 5.11479 19.2094 4.12427C18.2189 3.13376 17.043 2.34804 15.7488 1.81197C14.4547 1.27591 13.0676 1 11.6668 1C10.266 1 8.87896 1.27591 7.5848 1.81197C6.29065 2.34804 5.11474 3.13376 4.12424 4.12427C2.12382 6.12471 1 8.83789 1 11.6669C1 14.496 2.12382 17.2092 4.12424 19.2096C6.12466 21.21 8.8378 22.3339 11.6668 22.3339C14.4958 22.3339 17.209 21.21 19.2094 19.2096Z" stroke="#E4DCCE" stroke-width="2" stroke-linecap="round" stroke-linejoin="round"/>
</svg>
